<svg id="Beer" xmlns="http://www.w3.org/2000/svg" viewBox="0 0 40.06 75">
  <defs>
    <style>
      .cls-1 {
        fill: #ffdf3b;
      }

      .cls-1, .cls-2 {
        opacity: 0.9;
      }

      .cls-2 {
        fill: #fff;
      }

      .cls-3, .cls-4 {
        fill: none;
        stroke: #fff;
        stroke-miterlimit: 10;
      }

      .cls-3 {
        stroke-width: 0.25px;
      }

      .cls-4 {
        stroke-width: 0.5px;
      }
    </style>
  </defs>
  <title>beer</title>
  <g id="liquid">
    <path class="cls-1" d="M37.5,30.5c-.77,5.25-1,5.93-2.82,13.79-1.06,4.58-1.86,13.41-1.26,18.38.7,5.88,0,6.25-.5,7.08-.42.64-1.59,1-4.34,1H11.48c-2.75,0-3.91-.34-4.34-1s-1.21-1.21-.5-7.08c.6-5-.2-13.8-1.26-18.38-1.81-7.86-2-8.54-2.82-13.79-.55-3.77-.3-10.1.17-16.78,5.35.38,5.3.69,9.91.53,4.92-.16,6.5-1.06,10.5-.89s3.56.65,8,.51c3.54-.12,4.78-.38,6.21-.24C37.79,20.34,38.05,26.71,37.5,30.5Z" transform="translate(0 0)"/>
    <path class="cls-2" d="M37.32,13.63c-1.43-.14-2.67.12-6.21.24-4.41.14-4-.35-8-.51s-5.58.73-10.5.89c-4.61.16-4.56-.15-9.91-.53.25-3.47.55-7,.83-10.37a19.6,19.6,0,0,1,7-.68,43.13,43.13,0,0,1,5.75.3c4.2.74,7.33,0,9,.12s4.92-.51,7.17-.63c2-.1,2.58.62,4,.79C36.77,6.6,37.07,10.16,37.32,13.63Z" transform="translate(0 0)"/>
    <path class="cls-1" d="M37.33,13.81a54.75,54.75,0,0,1-6-.48c-4.39-.5-4.12.65-8.12.48S17,14,12.1,13.79a85.6,85.6,0,0,0-9.37,0C2.26,20.45,2,26.74,2.56,30.5c.77,5.25,1,5.93,2.82,13.79,1.06,4.59,1.86,13.41,1.26,18.38-.71,5.87,0,6.38.5,7.08s1.58,1,4.33,1H28.58c2.75,0,3.92-.36,4.33-1,.55-.83,1.21-1.21.5-7.08-.6-5,.2-13.8,1.26-18.38,1.81-7.86,2.05-8.53,2.82-13.79C38,26.74,37.8,20.45,37.33,13.81Z" transform="translate(0 0)"/>
    <path class="cls-2" d="M2.73,13.81c.25-3.47.55-7.12.83-10.46,0-.08,0-.16,0-.24a35.14,35.14,0,0,1,6.81.14c2.42.09,1.67,0,5.92-.28a79.52,79.52,0,0,1,9-.47,47.28,47.28,0,0,0,6.75.37c1.94-.1,2.89,0,4.4,0l0,.37c.28,3.35.58,6.91.83,10.38,0,.06,0,.12,0,.18a53.62,53.62,0,0,1-6-.47c-4.39-.5-4.12.64-8.12.48S17,14,12.1,13.79A83.3,83.3,0,0,0,2.73,13.81Z" transform="translate(0 0)"/>
  </g>
  <g id="bubbles">
    <circle class="cls-3" cx="19.71" cy="14.57" r="0.4"/>
    <circle class="cls-3" cx="14.56" cy="42.44" r="0.4"/>
    <circle class="cls-3" cx="31.06" cy="26.57" r="0.4"/>
    <circle class="cls-3" cx="10.16" cy="19.57" r="0.4"/>
    <circle class="cls-3" cx="24.06" cy="37.5" r="0.4"/>
    <circle class="cls-3" cx="22.31" cy="26.17" r="0.4"/>
    <circle class="cls-3" cx="18.71" cy="35.57" r="0.4"/>
    <circle class="cls-3" cx="12.48" cy="27.93" r="0.4"/>
    <circle class="cls-3" cx="26.91" cy="70.35" r="0.4"/>
    <circle class="cls-3" cx="30.06" cy="34.5" r="0.4"/>
    <circle class="cls-3" cx="31.71" cy="46.58" r="0.4"/>
  </g>
  <path id="glass" class="cls-4" d="M28.58,74.75c5.13,0,6.43-1,7-1.94,1.08-1.73.83-3.34.37-6.27-.17-1.08-.38-2.43-.58-4.11-.56-4.65.18-13.18,1.23-17.69l.74-3.18a98.85,98.85,0,0,0,2.11-10.77C40.32,25,39.4,14,38.58,4.23l-.25-3.06a1,1,0,1,0-2,.16c.83,10.17,2.06,23,1.17,29.17-.77,5.25-1,5.93-2.82,13.79-1.06,4.59-1.86,13.41-1.26,18.38.71,5.87,0,6.25-.5,7.08-.42.64-1.58,1-4.33,1H11.48c-2.75,0-3.91-.34-4.33-1s-1.21-1.21-.5-7.08c.6-5-.2-13.8-1.26-18.38C3.57,36.43,3.33,35.75,2.56,30.5c-.89-6.14.33-19,1.17-29.17a1,1,0,1,0-2-.16L1.48,4.23C.67,14-.26,25,.58,30.79A98.85,98.85,0,0,0,2.69,41.55l.74,3.18c1,4.51,1.79,13,1.23,17.69-.2,1.69-.41,3-.58,4.11-.46,2.93-.71,4.54.37,6.27.6,1,1.9,1.94,7,1.94Z" transform="translate(0 0)"/>
</svg>
