<svg xmlns="http://www.w3.org/2000/svg" viewBox="0 0 54.83 83.62">
  <defs>
    <style>
      .cls-1, .cls-9 {
        fill: #fff;
      }

      .cls-1 {
        opacity: 0.85;
      }

      .cls-2 {
        fill: #ffe98f;
      }

      .cls-3 {
        fill: #32fc00;
      }

      .cls-4 {
        fill: #e7ff12;
      }

      .cls-5 {
        fill: #d04b00;
      }

      .cls-5, .cls-6 {
        opacity: 0.65;
      }

      .cls-6 {
        fill: #b02d00;
      }

      .cls-10, .cls-7 {
        fill: none;
        stroke: #fff;
        stroke-miterlimit: 10;
      }

      .cls-7 {
        stroke-width: 0.5px;
      }

      .cls-8 {
        fill: #ffdf3b;
      }

      .cls-8, .cls-9 {
        opacity: 0.9;
      }

      .cls-10 {
        stroke-width: 0.25px;
      }

      .cls-11 {
        fill: #510400;
      }

      .cls-12 {
        fill: #6f0600;
      }
    </style>
  </defs>
  <title>drinks</title>
  <g id="vermouth">
    <path id="ice" class="cls-1" d="M14.6,49.74H25.43A4.25,4.25,0,0,1,29.68,54v8.62A4.49,4.49,0,0,1,25.2,67.1H14A4.1,4.1,0,0,1,9.93,63V54.41a4.67,4.67,0,0,1,4.67-4.67Z" transform="translate(-6.47 2.61) rotate(-6.48)"/>
    <path id="toothpick" class="cls-2" d="M21.81,67.78,44.68,44.89C48.23,41.34,54.83,36,54.83,36S49.5,42.61,46,46.16L23.08,69c-3.55,3.55-10.15,8.89-10.15,8.89S18.26,71.33,21.81,67.78Z" transform="translate(0 0)"/>
    <ellipse id="olive" class="cls-3" cx="27.45" cy="63.21" rx="6.13" ry="4.64" transform="translate(-24.35 17.76) rotate(-25.26)"/>
    <path id="oliveSh" class="cls-4" d="M23.81,66.37a6.32,6.32,0,0,0,3,.68,6,6,0,0,0,2.92-1.12,8.71,8.71,0,0,0,1.2-1.1,5.09,5.09,0,0,1-1.16.49,11.71,11.71,0,0,1-2.38.62,10.19,10.19,0,0,1-2.5,0,16.88,16.88,0,0,1-2-.45A2.65,2.65,0,0,0,23.81,66.37Z" transform="translate(0 0)"/>
    <g id="liquid">
      <path id="liquid2" class="cls-5" d="M5.18,51.77c3.37-.51,4.74-1.48,9.18-1.46s4.25,1.91,9.81,1.54,5.91-2,10.4-1.59,6.13,1.47,8.15,1.64A12.11,12.11,0,0,0,46,51.77l-7,18.72a5.75,5.75,0,0,0-.31,1.74v5.22a.49.49,0,0,1-.49.49H12.93a.49.49,0,0,1-.49-.49V72.23a5.75,5.75,0,0,0-.31-1.74l-7-18.72" transform="translate(0 0)"/>
      <path id="liquid1" class="cls-6" d="M4.82,50.81c3.44-.39,7.26.57,9.39.57,3.77,0,6.51-1.16,9.48-1.13,2.65,0,7,1.14,9.65,1.13s3.65-.51,6.34-.59a57.53,57.53,0,0,1,6.58.35L39.08,70.49a5.75,5.75,0,0,0-.31,1.74v5.22a.49.49,0,0,1-.49.49H12.93a.49.49,0,0,1-.49-.49V72.23a5.75,5.75,0,0,0-.31-1.74L4.82,50.82" transform="translate(0 0)"/>
    </g>
    <path id="glass" class="cls-7" d="M25.6,77.93H38.28a.49.49,0,0,0,.49-.49V72.23a5.75,5.75,0,0,1,.31-1.74l10.14-27.3h0a.9.9,0,0,1,1.68.62h0L40.76,71.11a3.2,3.2,0,0,0-.2,1.11v9.7a1.39,1.39,0,0,1-1.39,1.39H12a1.39,1.39,0,0,1-1.39-1.39v-9.7a3.2,3.2,0,0,0-.2-1.11L.31,43.81h0A.9.9,0,0,1,2,43.19H2l10.14,27.3a5.75,5.75,0,0,1,.31,1.74v5.22a.49.49,0,0,0,.49.49Z" transform="translate(0 0)"/>
  </g>
  <g id="beer">
    <g id="liquid-2" data-name="liquid">
      <path class="cls-8" d="M42.85,39.07c-.77,5.25-1,5.93-2.82,13.79C39,57.44,38.17,66.27,38.77,71.24c.7,5.88,0,6.25-.5,7.08-.42.64-1.59,1-4.34,1H16.83c-2.75,0-3.91-.34-4.34-1s-1.21-1.21-.5-7.08c.6-5-.2-13.8-1.26-18.38-1.81-7.86-2-8.54-2.82-13.79-.55-3.77-.3-10.1.17-16.78,5.35.38,5.3.69,9.91.53,4.92-.16,6.5-1.06,10.5-.89s3.56.65,8,.51c3.54-.12,4.78-.38,6.21-.24C43.14,28.91,43.4,35.28,42.85,39.07Z" transform="translate(0 0)"/>
      <path class="cls-9" d="M42.67,22.2c-1.43-.14-2.67.12-6.21.24-4.41.14-4-.35-8-.51s-5.58.73-10.5.89c-4.61.16-4.56-.15-9.91-.53.25-3.47.55-7,.83-10.37a19.6,19.6,0,0,1,7-.68,43.13,43.13,0,0,1,5.75.3c4.2.74,7.33,0,9,.12s4.92-.51,7.17-.63c2-.1,2.58.62,4,.79C42.12,15.17,42.42,18.73,42.67,22.2Z" transform="translate(0 0)"/>
      <path class="cls-8" d="M42.68,22.38a54.75,54.75,0,0,1-6-.48c-4.39-.5-4.12.65-8.12.48s-6.17.16-11.08,0a85.6,85.6,0,0,0-9.37,0c-.47,6.65-.72,12.93-.17,16.7.77,5.25,1,5.93,2.82,13.79,1.06,4.59,1.86,13.41,1.26,18.38-.71,5.88,0,6.38.5,7.08s1.58,1,4.33,1H33.93c2.75,0,3.92-.36,4.33-1,.55-.83,1.21-1.21.5-7.08-.6-5,.2-13.8,1.26-18.38,1.81-7.86,2.05-8.53,2.82-13.79C43.4,35.31,43.15,29,42.68,22.38Z" transform="translate(0 0)"/>
      <path class="cls-9" d="M8.08,22.38c.25-3.47.55-7.12.83-10.46,0-.08,0-.16,0-.24a35.14,35.14,0,0,1,6.81.14c2.42.09,1.67,0,5.92-.28a79.52,79.52,0,0,1,9-.47,47.28,47.28,0,0,0,6.75.37c1.94-.1,2.89,0,4.4,0l0,.37c.28,3.35.58,6.91.83,10.38,0,.06,0,.12,0,.18a53.62,53.62,0,0,1-6-.47c-4.39-.5-4.12.64-8.12.48s-6.17.15-11.09,0A83.3,83.3,0,0,0,8.08,22.38Z" transform="translate(0 0)"/>
    </g>
    <g id="bubbles">
      <circle class="cls-10" cx="25.06" cy="78.97" r="0.4"/>
      <circle class="cls-10" cx="19.91" cy="78.97" r="0.4"/>
      <circle class="cls-10" cx="36.41" cy="78.97" r="0.4"/>
      <circle class="cls-10" cx="15.51" cy="78.97" r="0.4"/>
      <circle class="cls-10" cx="29.41" cy="78.97" r="0.4"/>
      <circle class="cls-10" cx="21.41" cy="78.97" r="0.4"/>
      <circle class="cls-10" cx="13.41" cy="78.97" r="0.4"/>
      <circle class="cls-10" cx="27.66" cy="78.97" r="0.4"/>
      <circle class="cls-10" cx="24.06" cy="78.97" r="0.4"/>
      <circle class="cls-10" cx="34.06" cy="78.97" r="0.4"/>
      <circle class="cls-10" cx="17.83" cy="78.97" r="0.4"/>
      <circle class="cls-10" cx="32.26" cy="78.92" r="0.4"/>
      <circle class="cls-10" cx="35.41" cy="78.97" r="0.4"/>
      <circle class="cls-10" cx="30.41" cy="78.97" r="0.4"/>
      <circle class="cls-10" cx="22.41" cy="78.97" r="0.4"/>
      <circle class="cls-10" cx="37.06" cy="78.97" r="0.4"/>
    </g>
    <path id="glass-2" data-name="glass" class="cls-7" d="M33.93,83.32c5.13,0,6.43-1,7-1.94,1.08-1.73.83-3.34.37-6.27C41.17,74,41,72.68,40.75,71c-.56-4.65.18-13.18,1.23-17.69l.74-3.18a98.85,98.85,0,0,0,2.11-10.77c.84-5.76-.08-16.81-.9-26.56l-.25-3.06a1,1,0,1,0-2,.16c.83,10.17,2.06,23,1.17,29.17-.77,5.25-1,5.93-2.82,13.79C39,57.44,38.17,66.26,38.77,71.24c.71,5.88,0,6.25-.5,7.08-.42.64-1.58,1-4.33,1H16.83c-2.75,0-3.91-.34-4.33-1s-1.21-1.21-.5-7.08c.6-5-.2-13.8-1.26-18.38C8.92,45,8.68,44.32,7.91,39.07c-.89-6.14.33-19,1.17-29.17a1,1,0,1,0-2-.16L6.83,12.8C6,22.55,5.09,33.6,5.93,39.36A98.85,98.85,0,0,0,8,50.13l.74,3.18c1,4.51,1.79,13,1.23,17.69-.2,1.69-.41,3-.58,4.11C9,78,8.72,79.65,9.8,81.38c.6,1,1.9,1.94,7,1.94Z" transform="translate(0 0)"/>
  </g>
  <g id="wine">
    <path id="liquid2-2" data-name="liquid2" class="cls-11" d="M47,30.41a15.26,15.26,0,0,0-4.66.68c-1.48.51-3,.68-6.72.09s-5.37.49-7.69.19a27.87,27.87,0,0,0-7.05.27c-2.23.32-3.55.18-8-.77-3.69-.79-4.94-.54-9.07-.07,0,0,0,1.16,0,1.71a10.34,10.34,0,0,0,2.59,6.29c1.12,1.41,3.52,3,5.84,4.63C13.18,44,18,47.17,18,47.17a19.81,19.81,0,0,0,3.94,2.17,10.83,10.83,0,0,0,7.11,0A20.59,20.59,0,0,0,33,47.17s4.78-3.14,5.68-3.75c2.32-1.58,4.72-3.22,5.84-4.63a10.34,10.34,0,0,0,2.59-6.29A13.94,13.94,0,0,0,47,30.41Z" transform="translate(0 0)"/>
    <path id="liquid1-2" data-name="liquid1" class="cls-12" d="M47.09,31.18c-.76-.08-2.53-.5-4.74-.83-2-.3-3,.19-6.6,1.27-2.78.83-4.41.51-7.83.52a27.54,27.54,0,0,1-6.74-.95c-2.48-.78-4.86-.26-8.37.19-3.75.48-7.55-1.45-8.88-1.54a16.27,16.27,0,0,0-.07,2.65,10.34,10.34,0,0,0,2.59,6.29c1.12,1.41,3.52,3,5.84,4.63C13.18,44,18,47.17,18,47.17a19.81,19.81,0,0,0,3.94,2.17,10.83,10.83,0,0,0,7.11,0A20.59,20.59,0,0,0,33,47.17s4.78-3.14,5.68-3.75c2.32-1.58,4.72-3.22,5.84-4.63a10.34,10.34,0,0,0,2.59-6.29A11.45,11.45,0,0,0,47.09,31.18Z" transform="translate(0 0)"/>
    <path id="glass-3" data-name="glass" class="cls-7" d="M43.78,83.34c.45,0,.33-.6-.16-1s-.89-.23-2.28-.32c-1.91-.12-3.72-.16-6.26-.27a16.86,16.86,0,0,1-4.15-.44A4,4,0,0,1,28,79.25c-1.11-2.11-1.11-6.83-1.11-12.87a40.15,40.15,0,0,1,.53-8.24,11.11,11.11,0,0,1,3.09-6.76,36.16,36.16,0,0,1,6.24-5.12c3.06-2.22,7-4.56,8.69-6.68a11.55,11.55,0,0,0,2.86-7c.21-3-.64-6.57-1.91-11.77S42.5,7.46,40.17.67a.64.64,0,0,0-.81-.39.63.63,0,0,0-.39.8c1.71,5,4.79,14.19,6.22,20,1.29,5.27,2.07,8.64,1.87,11.38a10.34,10.34,0,0,1-2.59,6.29c-1.12,1.41-3.52,3-5.84,4.63C37.74,44,33,47.17,33,47.17A20.59,20.59,0,0,1,29,49.34a10.83,10.83,0,0,1-7.11,0A19.81,19.81,0,0,1,18,47.17S13.18,44,12.28,43.42C10,41.83,7.57,40.19,6.44,38.79a10.34,10.34,0,0,1-2.59-6.29c-.2-2.74.59-6.11,1.87-11.38,1.43-5.85,4.51-15.06,6.22-20a.63.63,0,0,0-.39-.8.64.64,0,0,0-.81.39c-2.33,6.79-5,14.95-6.26,20.14s-2.12,8.8-1.91,11.77a11.55,11.55,0,0,0,2.86,7c1.7,2.12,5.64,4.46,8.69,6.68a36.16,36.16,0,0,1,6.24,5.12,11.11,11.11,0,0,1,3.09,6.76A40.15,40.15,0,0,1,24,66.38c0,6,0,10.76-1.11,12.87A4,4,0,0,1,20,81.36a16.86,16.86,0,0,1-4.15.44c-2.54.11-4.36.14-6.26.27-1.39.09-1.91.05-2.28.32s-.61.94-.16,1C8.41,83.37,42.51,83.37,43.78,83.34Z" transform="translate(0 0)"/>
  </g>
</svg>
