<svg xmlns="http://www.w3.org/2000/svg" viewBox="0 0 61.05 52.96">
  <defs>
    <style>
      .cls-1 {
        fill: #ffe98f;
      }

      .cls-2 {
        fill: #32fc00;
      }

      .cls-3 {
        fill: #fff;
        opacity: 0.85;
      }

      .cls-4 {
        fill: #d04b00;
      }

      .cls-4, .cls-5 {
        opacity: 0.65;
      }

      .cls-5 {
        fill: #b02d00;
      }

      .cls-6 {
        fill: none;
        stroke: #fff;
        stroke-miterlimit: 10;
        stroke-width: 0.5px;
      }
    </style>
  </defs>
  <title>vermouth</title>
  <g id="Vermouth">
    <path id="toothpick" class="cls-1" d="M24.27,35.4,49.74,9.9c4-4,11.31-9.9,11.31-9.9s-5.94,7.36-9.9,11.32L25.68,36.81c-4,4-11.31,9.9-11.31,9.9S20.31,39.35,24.27,35.4Z" transform="translate(0)"/>
    <ellipse id="olive" class="cls-2" cx="30.55" cy="30.31" rx="6.83" ry="5.17" transform="translate(-10.01 15.94) rotate(-25.26)"/>
    <path id="ice" class="cls-3" d="M15.7,15.31H28.79A4.25,4.25,0,0,1,33,19.56v10.6a4.49,4.49,0,0,1-4.49,4.49H15.13a4.1,4.1,0,0,1-4.1-4.1V20a4.67,4.67,0,0,1,4.67-4.67Z" transform="translate(-2.68 2.65) rotate(-6.48)"/>
    <g id="liquid">
      <path id="liquid2" class="cls-4" d="M5.74,17.56C9.49,17,11,15.92,16,15.94s4.73,2.12,10.92,1.71,6.59-2.17,11.58-1.77,6.83,1.64,9.08,1.83a13.49,13.49,0,0,0,3.69-.14L43.5,38.42a6.41,6.41,0,0,0-.35,1.94v5.82a.54.54,0,0,1-.54.54H14.37a.54.54,0,0,1-.54-.54V40.35a6.41,6.41,0,0,0-.35-1.94L5.74,17.56" transform="translate(0)"/>
      <path id="liquid1" class="cls-5" d="M5.34,16.5c3.84-.44,8.09.63,10.46.63,4.2,0,7.25-1.29,10.56-1.26,2.95,0,7.75,1.27,10.75,1.26s4.06-.57,7.06-.66a64.09,64.09,0,0,1,7.33.39l-8,21.56a6.41,6.41,0,0,0-.35,1.94v5.82a.54.54,0,0,1-.54.54H14.37a.54.54,0,0,1-.54-.54V40.35a6.41,6.41,0,0,0-.35-1.94L5.34,16.51" transform="translate(0)"/>
    </g>
    <path id="glass" class="cls-6" d="M28.49,46.71H42.61a.54.54,0,0,0,.54-.54V40.35a6.41,6.41,0,0,1,.35-1.94L54.79,8h0a1,1,0,1,1,1.88.69h0L45.38,39.11a3.56,3.56,0,0,0-.22,1.24V51.16a1.55,1.55,0,0,1-1.55,1.55H13.38a1.55,1.55,0,0,1-1.55-1.55V40.35a3.56,3.56,0,0,0-.22-1.24L.31,8.7h0A1,1,0,1,1,2.19,8h0L13.48,38.42a6.41,6.41,0,0,1,.35,1.94v5.82a.54.54,0,0,0,.54.54Z" transform="translate(0)"/>
  </g>
</svg>
