<svg id="wine" xmlns="http://www.w3.org/2000/svg" viewBox="0 0 36.51 74.27">
  <defs>
    <style>
      .cls-1 {
        fill: #510400;
      }

      .cls-2 {
        fill: #6f0600;
      }

      .cls-3 {
        fill: none;
        stroke: #fff;
        stroke-miterlimit: 10;
        stroke-width: 0.5px;
      }
    </style>
  </defs>
  <title>wine</title>
  <path id="liquid2" class="cls-1" d="M1.27,24.25c3.25-.37,4.23-.57,7.13.05,3.5.75,4.54.86,6.29.61a21.9,21.9,0,0,1,5.54-.21c1.82.24,3.12-.61,6-.15s4.11.33,5.28-.07A12,12,0,0,1,35.22,24a11,11,0,0,1,0,1.63,8.13,8.13,0,0,1-2,4.95,24,24,0,0,1-4.59,3.64c-.7.48-4.46,3-4.46,3A16.18,16.18,0,0,1,21,38.84a8.51,8.51,0,0,1-5.59,0,15.57,15.57,0,0,1-3.1-1.71s-3.76-2.47-4.46-3a24,24,0,0,1-4.59-3.64,8.13,8.13,0,0,1-2-4.95C1.24,25.17,1.27,24.25,1.27,24.25Z" transform="translate(0 0)"/>
  <path id="liquid1" class="cls-2" d="M1.33,23.51a11.73,11.73,0,0,0-.06,2.08,8.13,8.13,0,0,0,2,4.95A24,24,0,0,0,7.9,34.18c.7.48,4.46,3,4.46,3a15.57,15.57,0,0,0,3.1,1.71,8.51,8.51,0,0,0,5.59,0,16.18,16.18,0,0,0,3.1-1.71s3.76-2.47,4.46-3a24,24,0,0,0,4.59-3.64,8.13,8.13,0,0,0,2-4.95,10,10,0,0,0,0-1c-2.61-.34-2.41-.68-5-.68-1.83,0-2.4,1.16-7,1.42a23.89,23.89,0,0,1-5-.15c-3-.3-3.73-.88-5.73-.89-2.25,0-3.38.8-6.79.45C4,24.53,3.57,23.94,1.33,23.51Z" transform="translate(0 0)"/>
  <path id="glass" class="cls-3" d="M33.44,74c.35,0,.26-.47-.12-.75s-.7-.18-1.79-.25c-1.5-.09-3.71-.12-5.71-.21a13.25,13.25,0,0,1-3.26-.35,3.14,3.14,0,0,1-2.28-1.66c-.87-1.66-.87-5.36-.87-10.11s.17-12.67.42-14.92a8.74,8.74,0,0,1,2.43-5.31,28.42,28.42,0,0,1,4.91-4c2.4-1.74,5.5-3.58,6.83-5.25a9.08,9.08,0,0,0,2.25-5.5c.17-2.33-.5-5.17-1.5-9.25S31.65,5.92,29.82.58a.5.5,0,0,0-.64-.3.49.49,0,0,0-.31.63c1.34,3.91,3.76,11.15,4.89,15.75,1,4.14,1.63,6.79,1.47,8.94a8.13,8.13,0,0,1-2,4.95,24,24,0,0,1-4.59,3.64c-.7.48-4.46,3-4.46,3A16.18,16.18,0,0,1,21,38.84a8.51,8.51,0,0,1-5.59,0,15.57,15.57,0,0,1-3.1-1.71s-3.76-2.47-4.46-3a24,24,0,0,1-4.59-3.64,8.13,8.13,0,0,1-2-4.95c-.15-2.15.46-4.8,1.47-8.94C3.87,12.06,6.29,4.82,7.64.91A.49.49,0,0,0,7.33.28a.5.5,0,0,0-.64.3C4.86,5.92,2.78,12.33,1.78,16.42S.11,23.33.28,25.67a9.08,9.08,0,0,0,2.25,5.5C3.86,32.83,7,34.67,9.36,36.42a28.42,28.42,0,0,1,4.91,4,8.74,8.74,0,0,1,2.43,5.31c.25,2.25.42,10.17.42,14.92s0,8.46-.87,10.11A3.14,3.14,0,0,1,14,72.44a13.25,13.25,0,0,1-3.26.35c-2,.08-4.21.11-5.71.21-1.09.07-1.5,0-1.79.25s-.48.74-.12.75C4.07,74,32.44,74,33.44,74Z" transform="translate(0 0)"/>
</svg>
